<svg xmlns="http://www.w3.org/2000/svg" width="240" height="160" viewBox="0 0 240 160">
<defs>
<radialGradient id="ground-shadow" cx=".5" cy=".5" r=".5">
<stop offset="0" stop-color="#000" stop-opacity=".2"/>
<stop offset=".55" stop-color="#000" stop-opacity=".1"/>
<stop offset="1" stop-color="#000" stop-opacity="0"/>
</radialGradient>
<clipPath id="bj-body"><path d="M33.5 92Q33.5 88 37.5 88H104Q109 88 109 93V101H164C164 86 166.5 73.5 171 70.4L189.5 66.6C196 67.3 201.6 72.8 203.6 81.6C205.2 88.8 205.2 97 202.6 103.6C201 107.6 198.4 110 194.4 110H191.2A16 16 0 0 0 164.8 110H62.2A16 16 0 0 0 35.8 110H33.5Z"/></clipPath>
<clipPath id="bj-canopy"><path d="M191 38.6C191.6 31.4 188.4 26.2 181 25.4C160 23.6 100 22.7 66 22.8C48 22.8 37.6 28.8 36.6 44.4L35.6 87.4H60.5V38.6Z"/></clipPath>
<clipPath id="bj-ws"><path d="M184.2 38.4H188.8L192.2 66.8L187.4 67.4Z"/></clipPath>
</defs>
<ellipse id="ground" cx="120" cy="132.4" rx="84" ry="4.6" fill="url(#ground-shadow)"/>
<g id="vehicle" transform="translate(-0.2 0) translate(120 132) scale(0.974) translate(-120 -132)">
<path d="M58 36H186L191 67L165 72L163 102H58Z" fill="#ECEFF4"/>
<rect x="58" y="36" width="133" height="9.5" fill="#2C3A6B"/>
<rect x="58" y="45.5" width="133" height="3" fill="#C9D1DD"/>
<rect x="58" y="95" width="108" height="7" fill="#CDD5E1"/>
<rect x="130.5" y="90" width="14" height="11" fill="#3A3F47"/>
<rect x="125" y="86" width="25.5" height="5.4" rx="2.7" fill="#2F343B"/>
<rect x="126.4" y="86" width="22.6" height="1.5" rx=".75" fill="#4A505A"/>
<rect x="124.4" y="63" width="5.4" height="25" rx="2.7" fill="#2F343B"/>
<rect x="62" y="80" width="46.5" height="8" rx="3" fill="#2F343B"/>
<rect x="63.4" y="80" width="43.6" height="1.6" rx=".8" fill="#4A505A"/>
<rect x="61.5" y="48.5" width="6.8" height="33.5" rx="3.2" fill="#2F343B"/>
<rect x="62.6" y="50" width="1.5" height="30" rx=".75" fill="#4A505A"/>
<path d="M176.4 71.4L167.6 63.2" stroke="#2F343B" stroke-width="2" stroke-linecap="round"/>
<path d="M168.4 62.9L161.2 62.3" stroke="#1C1F24" stroke-width="3" stroke-linecap="round"/>
<path d="M36 110A15.8 15.8 0 0 1 62 110Z" fill="#1F2329"/>
<path d="M165 110A15.8 15.8 0 0 1 191 110Z" fill="#1F2329"/>
<circle cx="49" cy="119" r="13" fill="#2B2F36"/>
<circle cx="49" cy="119" r="9.7" fill="none" stroke="#3D434C" stroke-width="1.2"/>
<circle cx="49" cy="119" r="8.4" fill="#C9CED6"/>
<circle cx="49" cy="119" r="6.22" fill="none" stroke="#9AA1AB" stroke-width="1"/>
<circle cx="49" cy="119" r="3.53" fill="#E5E7EB"/>
<circle cx="52.45" cy="122.45" r=".75" fill="#6B7280"/>
<circle cx="45.55" cy="122.45" r=".75" fill="#6B7280"/>
<circle cx="45.55" cy="115.55" r=".75" fill="#6B7280"/>
<circle cx="52.45" cy="115.55" r=".75" fill="#6B7280"/>
<circle cx="49" cy="119" r="1" fill="#6B7280"/>
<circle cx="178" cy="119" r="13" fill="#2B2F36"/>
<circle cx="178" cy="119" r="9.7" fill="none" stroke="#3D434C" stroke-width="1.2"/>
<circle cx="178" cy="119" r="8.4" fill="#C9CED6"/>
<circle cx="178" cy="119" r="6.22" fill="none" stroke="#9AA1AB" stroke-width="1"/>
<circle cx="178" cy="119" r="3.53" fill="#E5E7EB"/>
<circle cx="181.45" cy="122.45" r=".75" fill="#6B7280"/>
<circle cx="174.55" cy="122.45" r=".75" fill="#6B7280"/>
<circle cx="174.55" cy="115.55" r=".75" fill="#6B7280"/>
<circle cx="181.45" cy="115.55" r=".75" fill="#6B7280"/>
<circle cx="178" cy="119" r="1" fill="#6B7280"/>
<path d="M163.86 112.41A15.6 15.6 0 0 1 192.14 112.41L190.51 113.17A13.8 13.8 0 0 0 165.49 113.17Z" fill="#24282E"/>
<path d="M191 38.6C191.6 31.4 188.4 26.2 181 25.4C160 23.6 100 22.7 66 22.8C48 22.8 37.6 28.8 36.6 44.4L35.6 87.4H60.5V38.6Z" fill="#283A7A"/>
<g clip-path="url(#bj-canopy)">
<path d="M187.8 30.8C185.8 28.2 183.2 27.3 180.6 27.1C160 25.4 100 24.5 66 24.6C52 24.6 44 28.6 41.6 34" fill="none" stroke="#3B4F99" stroke-width="2.4" stroke-linecap="round"/>
<rect x="30" y="35.9" width="165" height="2.7" fill="#1E2B5C"/>
<rect x="30" y="30" width="7.6" height="60" fill="#1E2B5C"/>
<path d="M48 38V87.4" stroke="#1E2B5C" stroke-width="1"/>
</g>
<rect x="119.5" y="37" width="4.2" height="64.5" rx="1.6" fill="#1E2B5C"/>
<path d="M61.6 38V87.6" stroke="#2A2E35" stroke-width="2"/>
<path d="M184.2 38.4H188.8L192.2 66.8L187.4 67.4Z" fill="#BFE3F7"/>
<g clip-path="url(#bj-ws)">
<path d="M180 55H200V70H180Z" fill="#8CCBEB"/>
<path d="M184 46L194 40V44L184 50Z" fill="#FFFFFF" opacity=".7"/>
</g>
<path d="M184.2 38.4L187.4 67.4" stroke="#1F2329" stroke-width="1.6" stroke-linecap="round"/>
<path d="M33.5 92Q33.5 88 37.5 88H104Q109 88 109 93V101H164C164 86 166.5 73.5 171 70.4L189.5 66.6C196 67.3 201.6 72.8 203.6 81.6C205.2 88.8 205.2 97 202.6 103.6C201 107.6 198.4 110 194.4 110H191.2A16 16 0 0 0 164.8 110H62.2A16 16 0 0 0 35.8 110H33.5Z" fill="#F97316"/>
<g clip-path="url(#bj-body)">
<rect x="30" y="104.5" width="180" height="8" fill="#EA580C"/>
<rect x="30" y="88" width="80" height="2.2" fill="#FDBA74"/>
<path d="M165.2 86C166 77 168 72.6 171.2 71.5L189.5 67.8" fill="none" stroke="#FDBA74" stroke-width="2.2" stroke-linecap="round"/>
<path d="M190 66.6C196 67.3 201.6 72.8 203.6 81.6C205.2 88.8 205.2 97 202.6 103.6" fill="none" stroke="#EA580C" stroke-width="3.6"/>
<path d="M164.8 110A16 16 0 0 1 191.2 110M35.8 110A16 16 0 0 1 62.2 110" fill="none" stroke="#C2410C" stroke-width="1.6"/>
</g>
<rect x="109" y="100.2" width="55" height="1.8" fill="#2A2E35"/>
<path d="M203.2 79.6C206.6 79.8 208 84 208 85.6C208 87.2 206.6 91.2 203.2 91.4Z" fill="#D5D9DF"/>
<ellipse cx="206.2" cy="85.5" rx="1.5" ry="4.6" fill="#FFF4CC"/>
<ellipse cx="206.4" cy="83.4" rx=".6" ry="1.2" fill="#FFFFFF"/>
<rect x="194" y="71.6" width="4.6" height="2.6" rx="1.3" fill="#F59E0B" transform="rotate(38 196.3 72.9)"/>
<rect x="32.4" y="92.5" width="3.6" height="7.5" rx="1" fill="#DC2626"/>
<rect x="33" y="93.3" width="1.4" height="3" rx=".7" fill="#F87171"/>
</g>
</svg>
